<svg width="16" height="16" viewBox="0 0 16 16" fill="none" xmlns="http://www.w3.org/2000/svg">
<rect width="16" height="16" rx="3" fill="#EFEAE0"/>
<path d="M6.90608 3.59127V7.71202H9.77348C10.1823 7.71202 10.453 7.65882 10.5856 7.55242C10.7293 7.44601 10.8011 7.35895 10.8011 7.29124V8.71319C10.8011 8.68417 10.7735 8.64064 10.7182 8.5826C10.674 8.51489 10.5746 8.45202 10.4199 8.39398C10.2762 8.32627 10.0608 8.29241 9.77348 8.29241H6.90608V11.6442C6.90608 12.0214 6.96133 12.3116 7.07182 12.5147C7.18232 12.7082 7.30387 12.8436 7.43646 12.921C7.56906 12.9887 7.63536 13.0129 7.63536 12.9936H5C5 13.0129 5.0663 12.9887 5.1989 12.921C5.33149 12.8533 5.44751 12.7227 5.54696 12.5292C5.65746 12.3261 5.71271 12.0311 5.71271 11.6442V4.43283C5.71271 4.03623 5.65746 3.73637 5.54696 3.53323C5.44751 3.32042 5.33149 3.17533 5.1989 3.09794C5.0663 3.01088 5 2.98186 5 3.01088H11V4.49087C10.9448 4.25872 10.7901 4.05074 10.5359 3.86695C10.2818 3.68317 9.92265 3.59127 9.45856 3.59127H6.90608Z" fill="#634305"/>
</svg>
