<svg width="120" height="120" viewBox="0 0 120 120" fill="none" xmlns="http://www.w3.org/2000/svg">
<circle cx="60" cy="60" r="60" fill="#C19A5B"/>
<path d="M65.2331 18.7877C64.5168 18.696 63.8621 18.4837 63.269 18.1507C62.6862 17.8098 62.1933 17.3795 61.7902 16.8596C61.3872 16.3398 61.0938 15.7559 60.91 15.108C60.7353 14.4613 60.694 13.7811 60.786 13.0675C60.878 12.3539 61.0906 11.7062 61.4237 11.1245C61.7659 10.5439 62.1979 10.0528 62.7197 9.65132C63.2416 9.24981 63.8271 8.96205 64.4764 8.78803C65.1358 8.60614 65.8237 8.56102 66.5401 8.65269C67.0569 8.71883 67.5248 8.84298 67.9438 9.02514C68.3639 9.19826 68.7401 9.42546 69.0726 9.70673C69.4141 9.98916 69.7168 10.3217 69.9809 10.7044L68.528 11.7856C68.3667 11.5354 68.1786 11.314 67.9638 11.1212C67.7581 10.9296 67.5205 10.7706 67.2511 10.6443C66.9816 10.518 66.6746 10.4329 66.33 10.3888C65.7225 10.311 65.1513 10.3802 64.6165 10.5965C64.0919 10.8048 63.6524 11.1388 63.2982 11.5985C62.944 12.0582 62.7232 12.6267 62.6358 13.3042C62.5496 13.9726 62.619 14.5783 62.8439 15.1213C63.07 15.6553 63.4099 16.0936 63.8634 16.4363C64.3272 16.7711 64.8629 16.9773 65.4704 17.0551C66.0145 17.1247 66.5096 17.0733 66.9558 16.9008C67.4112 16.7296 67.8276 16.4661 68.2053 16.1104L69.3521 17.5105C68.9858 17.8493 68.5857 18.1286 68.1518 18.3485C67.719 18.5594 67.2581 18.7025 66.7691 18.7776C66.2801 18.8528 65.7681 18.8561 65.2331 18.7877Z" fill="white"/>
<path d="M74.2281 21.0868C73.5438 20.8296 72.9929 20.4522 72.5756 19.9547C72.17 19.4518 71.9159 18.8842 71.8134 18.2519C71.7227 17.6143 71.8016 16.9675 72.0501 16.3114C72.2986 15.6553 72.6667 15.122 73.1544 14.7115C73.6539 14.2958 74.221 14.0368 74.8557 13.9347C75.5023 13.8273 76.1677 13.9022 76.8519 14.1594C77.5362 14.4166 78.0812 14.7966 78.4868 15.2995C78.8923 15.8024 79.1421 16.3683 79.2361 16.9974C79.3386 17.6297 79.2656 18.2739 79.0171 18.93C78.7685 19.5861 78.3946 20.122 77.8951 20.5378C77.4074 20.9483 76.8446 21.2088 76.2066 21.3195C75.5719 21.4216 74.9124 21.344 74.2281 21.0868ZM74.8187 19.5275C75.1437 19.6497 75.4662 19.6882 75.7863 19.643C76.1181 19.5925 76.4185 19.4572 76.6875 19.2371C76.9683 19.0117 77.1846 18.6987 77.3363 18.2983C77.488 17.8978 77.5315 17.5248 77.4669 17.1793C77.4109 16.837 77.2751 16.5378 77.0595 16.2815C76.8524 16.0285 76.5906 15.8425 76.2742 15.7235C75.9491 15.6013 75.6164 15.5639 75.2761 15.6112C74.9442 15.6617 74.6396 15.7954 74.362 16.0123C74.093 16.2324 73.8826 16.5426 73.7309 16.9431C73.5792 17.3436 73.5298 17.7192 73.5826 18.07C73.6471 18.4155 73.7872 18.7164 74.0028 18.9726C74.2302 19.2236 74.5022 19.4085 74.8187 19.5275Z" fill="white"/>
<path d="M79.4081 23.0742L83.1293 17.1753L84.5575 18.0693L84.0905 18.8096L84.1834 18.8677C84.5414 18.6939 84.9341 18.6278 85.3613 18.6693C85.7935 18.7032 86.1992 18.8389 86.5785 19.0763C87.3061 19.5318 87.7132 20.0932 87.7997 20.7605C87.8863 21.4278 87.6985 22.1277 87.2364 22.8602L84.9234 26.5268L83.4023 25.5746L85.5986 22.0931C85.8418 21.7075 85.926 21.3515 85.8512 21.0251C85.789 20.6957 85.5877 20.4244 85.2471 20.2112C84.9684 20.0368 84.6759 19.9613 84.3696 19.9846C84.076 20.0052 83.7908 20.1063 83.5142 20.2881C83.2501 20.467 83.0208 20.7107 82.8263 21.0191L80.9291 24.0264L79.4081 23.0742Z" fill="white"/>
<path d="M89.3478 23.1734L90.3619 22.0243L91.3301 22.8721L90.316 24.0212L89.3478 23.1734ZM88.3289 29.6659C87.7865 29.1908 87.4966 28.6641 87.4593 28.0857C87.4279 27.5005 87.6537 26.9343 88.1367 26.3871L92.5824 21.3496L93.9316 22.5312L89.7032 27.3225C89.4798 27.5756 89.3653 27.8088 89.3596 28.0221C89.36 28.2285 89.4769 28.434 89.7104 28.6385C89.8202 28.7347 89.9353 28.8112 90.0556 28.868C90.1819 28.918 90.3564 28.9617 90.579 28.999L89.4201 30.3123C89.2207 30.2347 89.03 30.1404 88.8479 30.0295C88.6667 29.9314 88.4937 29.8102 88.3289 29.6659ZM91.5622 25.1126L92.5763 23.9635L93.9151 25.1361L92.901 26.2852L91.5622 25.1126Z" fill="white"/>
<path d="M91.5331 33.1613C91.218 32.7827 91.0118 32.3851 90.9146 31.9686C90.8302 31.5533 90.8552 31.1481 90.9897 30.7532C91.1241 30.3582 91.3708 30.0125 91.7298 29.7161C92.1028 29.408 92.5018 29.2382 92.9268 29.2067C93.3576 29.1821 93.7811 29.2701 94.1973 29.4705C94.6194 29.678 94.9967 29.9815 95.3293 30.3812C95.5101 30.5985 95.6594 30.8065 95.7772 31.005C95.9077 31.2047 96.0138 31.3892 96.0953 31.5585C96.1768 31.7278 96.2344 31.8755 96.268 32.0015L96.5003 31.8097C96.7888 31.5714 96.9342 31.268 96.9363 30.8995C96.9454 30.5252 96.7925 30.1488 96.4774 29.7702C96.2673 29.5178 96.0033 29.3218 95.6853 29.1822C95.3801 29.0438 95.0683 28.976 94.7499 28.9787L94.7115 27.5198C95.0826 27.5091 95.4419 27.5555 95.7893 27.659C96.1437 27.7567 96.4763 27.9138 96.7871 28.1303C97.105 28.341 97.3922 28.6006 97.649 28.9091C98.3316 29.7294 98.6609 30.5103 98.6368 31.2519C98.6126 31.9935 98.2346 32.6665 97.5026 33.271L94.1876 36.0086L93.0586 34.6519L93.6075 34.1986L93.5375 34.1144C93.3292 34.1209 93.1074 34.097 92.8723 34.0428C92.6442 33.9827 92.4167 33.8807 92.19 33.7367C91.9563 33.5985 91.7373 33.4067 91.5331 33.1613ZM92.8812 32.598C93.1146 32.8785 93.3699 33.064 93.6471 33.1544C93.9372 33.2461 94.2216 33.2597 94.5003 33.1951C94.7849 33.1375 95.0363 33.0186 95.2545 32.8385C95.2035 32.6203 95.1175 32.3956 94.9964 32.1644C94.8822 31.9274 94.7406 31.7072 94.5714 31.5039C94.233 31.0973 93.9222 30.8807 93.639 30.8544C93.3557 30.828 93.1015 30.9078 92.8763 31.0938C92.6652 31.2682 92.5505 31.4871 92.5322 31.7506C92.5198 32.0211 92.6362 32.3036 92.8812 32.598Z" fill="white"/>
<path d="M96.6835 40.6134C96.3389 39.9915 96.1679 39.3625 96.1705 38.7265C96.1856 38.0941 96.3599 37.5041 96.6935 36.9566C97.0395 36.4126 97.5287 35.9668 98.161 35.6191C98.7933 35.2714 99.4287 35.0989 100.067 35.1015C100.71 35.1121 101.304 35.2796 101.849 35.6039C102.399 35.9363 102.846 36.4134 103.191 37.0353C103.566 37.713 103.745 38.3743 103.726 39.0191C103.707 39.6639 103.486 40.2435 103.061 40.7581L101.665 39.653C101.874 39.3714 101.979 39.0798 101.979 38.7781C101.987 38.4721 101.903 38.1596 101.726 37.8407C101.554 37.5297 101.323 37.2925 101.034 37.1289C100.753 36.961 100.441 36.8779 100.097 36.8796C99.7532 36.8813 99.3973 36.9834 99.0291 37.1858C98.661 37.3883 98.3806 37.6361 98.188 37.9293C98.0034 38.218 97.9035 38.5278 97.8884 38.8586C97.8813 39.185 97.9639 39.5036 98.1362 39.8146C98.3306 40.1654 98.5679 40.4146 98.8481 40.5622C99.1363 40.7054 99.4562 40.7739 99.8078 40.7678L99.9589 42.5104C99.3141 42.5529 98.7009 42.4168 98.1192 42.102C97.5376 41.7873 97.059 41.2911 96.6835 40.6134Z" fill="white"/>
<path d="M103.91 42.4711L105.357 41.9556L105.791 43.1647L104.345 43.6801L103.91 42.4711ZM99.86 47.6579C99.6167 46.9805 99.6195 46.3798 99.8682 45.8559C100.126 45.3289 100.599 44.9427 101.287 44.6972L107.627 42.4377L108.232 44.1227L102.202 46.2718C101.884 46.3853 101.67 46.534 101.561 46.7178C101.461 46.8986 101.464 47.1347 101.568 47.4263C101.618 47.5635 101.681 47.686 101.759 47.7938C101.845 47.8985 101.976 48.0209 102.153 48.1611L100.5 48.7501C100.363 48.586 100.242 48.4115 100.137 48.2266C100.026 48.0533 99.9339 47.8637 99.86 47.6579ZM104.904 45.2365L106.35 44.721L106.95 46.3931L105.504 46.9086L104.904 45.2365Z" fill="white"/>
<path d="M101.702 57.6608C101.644 56.898 101.757 56.2182 102.042 55.6212C102.327 55.0334 102.763 54.5575 103.349 54.1935C103.946 53.8378 104.672 53.6276 105.529 53.5628L111.423 53.1172L111.562 54.9425L105.559 55.3964C105.131 55.4288 104.749 55.5307 104.413 55.7022C104.087 55.873 103.835 56.1113 103.656 56.4171C103.488 56.7312 103.42 57.1017 103.452 57.5285C103.485 57.9644 103.609 58.3204 103.822 58.5965C104.045 58.8719 104.331 59.0696 104.679 59.1893C105.037 59.3085 105.429 59.3518 105.858 59.3194L111.861 58.8655L112 60.6908L106.106 61.1364C105.295 61.1978 104.568 61.0975 103.924 60.8356C103.281 60.5737 102.765 60.1744 102.375 59.6376C101.986 59.1007 101.762 58.4418 101.702 57.6608Z" fill="white"/>
<path d="M101.474 66.2725C101.548 65.676 101.698 65.176 101.923 64.7725C102.147 64.3781 102.416 64.0672 102.73 63.8399C103.044 63.6126 103.377 63.4564 103.728 63.3713L104.225 65.0433C103.879 65.1566 103.604 65.3336 103.399 65.5744C103.203 65.8163 103.083 66.1135 103.039 66.466C103.003 66.7552 103.015 67.0229 103.077 67.2691C103.147 67.5164 103.31 67.6558 103.564 67.6872C103.745 67.7096 103.894 67.6637 104.009 67.5495C104.133 67.4455 104.233 67.3065 104.31 67.1324C104.396 66.9595 104.469 66.7804 104.529 66.5951L104.807 65.8036C104.921 65.4781 105.088 65.1775 105.306 64.9017C105.534 64.627 105.8 64.4122 106.105 64.2571C106.418 64.1123 106.761 64.0628 107.133 64.1088C107.55 64.1604 107.898 64.3228 108.177 64.5959C108.455 64.878 108.655 65.2331 108.777 65.6611C108.898 66.0982 108.927 66.5653 108.865 67.0623C108.808 67.5233 108.701 67.9323 108.546 68.2894C108.391 68.6465 108.184 68.9466 107.923 69.1897C107.671 69.4339 107.363 69.616 106.998 69.7361L106.52 68.1353C106.811 68.0243 107.025 67.8581 107.163 67.6365C107.3 67.4241 107.385 67.1868 107.417 66.9247C107.456 66.6174 107.427 66.3661 107.332 66.1707C107.236 65.9754 107.107 65.8676 106.944 65.8474C106.771 65.8261 106.61 65.898 106.461 66.0631C106.311 66.2281 106.189 66.4332 106.094 66.6785L105.722 67.6649C105.473 68.3316 105.146 68.8142 104.74 69.1128C104.334 69.4204 103.876 69.5428 103.368 69.48C102.914 69.4239 102.532 69.2435 102.219 68.9388C101.916 68.6352 101.697 68.2502 101.562 67.7838C101.436 67.3185 101.406 66.8147 101.474 66.2725Z" fill="white"/>
<path d="M103.958 77.0367L105.037 76.3389L105.935 77.7388L106.064 77.7449L107.079 76.5685L108.065 77.4016L107.072 78.5575L107.066 78.687L108.525 79.2481L108.06 80.446L106.602 79.8848L106.524 79.972L106.473 81.5049L105.182 81.4618L105.224 79.9112L105.124 79.8287L103.515 80.2638L103.187 79.0246L104.832 78.5738L104.871 78.4719L103.958 77.0367Z" fill="white"/>
<path d="M92.5861 87.2447C93.0278 86.6755 93.5428 86.2203 94.1312 85.8791C94.7211 85.5507 95.3432 85.3448 95.9972 85.2614C96.6513 85.178 97.3053 85.2212 97.9593 85.391C98.6077 85.568 99.2176 85.8766 99.789 86.3166C100.36 86.7566 100.814 87.2669 101.149 87.8474C101.479 88.4351 101.685 89.0548 101.769 89.7063C101.853 90.3578 101.806 91.0066 101.628 91.6525C101.452 92.3112 101.143 92.9251 100.701 93.4943C100.383 93.905 100.039 94.2443 99.6689 94.5122C99.3065 94.7856 98.9194 94.994 98.5077 95.1374C98.0904 95.288 97.6492 95.38 97.1843 95.4133L96.9829 93.6179C97.2812 93.6058 97.5681 93.5562 97.8436 93.4692C98.1136 93.3893 98.3714 93.2655 98.6171 93.0979C98.8628 92.9302 99.0919 92.7095 99.3043 92.4357C99.679 91.9529 99.9079 91.4271 99.9912 90.8581C100.076 90.3019 100.009 89.7554 99.7904 89.2185C99.5715 88.6816 99.1908 88.2042 98.6483 87.7865C98.1131 87.3743 97.5535 87.1275 96.9695 87.0461C96.3928 86.9704 95.8413 87.0407 95.3151 87.2571C94.7906 87.4863 94.341 87.8422 93.9664 88.325C93.6309 88.7573 93.425 89.2088 93.3486 89.6795C93.2666 90.1574 93.2841 90.6486 93.4011 91.153L91.6086 91.4303C91.5005 90.9441 91.461 90.459 91.49 89.9749C91.5263 89.4963 91.6356 89.0279 91.8178 88.5697C92.0001 88.1115 92.2562 87.6698 92.5861 87.2447Z" fill="white"/>
<path d="M86.0451 93.8228C86.6129 93.3635 87.2177 93.0797 87.8594 92.9712C88.4998 92.8755 89.12 92.9429 89.7199 93.1732C90.3185 93.4164 90.8397 93.8102 91.2834 94.3546C91.7271 94.8989 92.0041 95.4844 92.1143 96.1108C92.2232 96.7501 92.1621 97.3685 91.9308 97.9662C91.6983 98.5766 91.2981 99.1115 90.7303 99.5707C90.1625 100.03 89.5584 100.307 88.918 100.403C88.2776 100.499 87.661 100.429 87.0682 100.192C86.4683 99.9621 85.9464 99.5747 85.5027 99.0304C85.059 98.486 84.7826 97.8941 84.6737 97.2549C84.5635 96.6284 84.6211 96.0128 84.8466 95.4081C85.0778 94.8105 85.4774 94.2821 86.0451 93.8228ZM87.0997 95.1166C86.83 95.3348 86.6342 95.5929 86.5121 95.8911C86.3887 96.202 86.3547 96.5287 86.41 96.8711C86.464 97.2263 86.6264 97.57 86.8973 97.9023C87.1681 98.2346 87.4696 98.46 87.8018 98.5785C88.1268 98.7027 88.4547 98.7366 88.7855 98.6802C89.1093 98.6295 89.4025 98.4979 89.6651 98.2855C89.9348 98.0674 90.1348 97.7999 90.2653 97.4832C90.3887 97.1723 90.4263 96.8427 90.3781 96.4946C90.3227 96.1522 90.1596 95.8149 89.8888 95.4826C89.6179 95.1503 89.3171 94.9185 88.9863 94.7872C88.6542 94.6687 88.3227 94.6377 87.9919 94.6941C87.6597 94.7634 87.3623 94.9042 87.0997 95.1166Z" fill="white"/>
<path d="M81.7178 97.2802L84.9645 103.451L83.4706 104.231L83.0631 103.457L82.966 103.507C82.9368 103.903 82.7967 104.274 82.5457 104.621C82.299 104.976 81.9772 105.257 81.5805 105.465C80.8193 105.862 80.1275 105.93 79.505 105.669C78.8825 105.408 78.3696 104.894 77.9665 104.128L75.9484 100.292L77.5395 99.4617L79.4557 103.104C79.6679 103.507 79.9345 103.759 80.2554 103.858C80.5724 103.97 80.9091 103.933 81.2653 103.747C81.5569 103.595 81.7695 103.381 81.9032 103.106C82.0331 102.843 82.0888 102.546 82.0702 102.217C82.0477 101.899 81.9516 101.579 81.7819 101.257L80.1267 98.1109L81.7178 97.2802Z" fill="white"/>
<path d="M76.6277 105.789L77.1127 107.241L75.8896 107.646L75.4046 106.195L76.6277 105.789ZM71.5125 101.64C72.1978 101.413 72.8006 101.429 73.3209 101.688C73.844 101.956 74.2211 102.436 74.452 103.127L76.5783 109.491L74.8738 110.056L72.8514 104.003C72.7446 103.684 72.6002 103.468 72.4181 103.355C72.2389 103.251 72.0018 103.248 71.7069 103.346C71.5681 103.392 71.4438 103.453 71.3339 103.527C71.2269 103.611 71.101 103.739 70.9564 103.912L70.4021 102.253C70.5698 102.12 70.7477 102.004 70.9357 101.903C71.1121 101.796 71.3044 101.709 71.5125 101.64ZM73.8302 106.717L74.3152 108.168L72.6237 108.729L72.1387 107.277L73.8302 106.717Z" fill="white"/>
<path d="M66.8572 102.631C67.3444 102.552 67.793 102.576 68.2029 102.703C68.6052 102.84 68.9434 103.067 69.2173 103.382C69.4913 103.697 69.6658 104.084 69.7409 104.543C69.819 105.019 69.7641 105.448 69.5765 105.829C69.3798 106.212 69.0894 106.531 68.7052 106.787C68.3121 107.045 67.8584 107.216 67.3441 107.299C67.0643 107.345 66.8088 107.368 66.5773 107.369C66.3383 107.38 66.1249 107.377 65.937 107.362C65.7492 107.346 65.5922 107.321 65.4661 107.286L65.5147 107.583C65.5751 107.951 65.7643 108.23 66.0822 108.418C66.4017 108.615 66.8051 108.674 67.2923 108.595C67.6171 108.542 67.9204 108.414 68.2022 108.212C68.4764 108.02 68.6928 107.786 68.8516 107.511L70.1342 108.216C69.9558 108.54 69.7339 108.826 69.4685 109.072C69.2046 109.327 68.9003 109.533 68.5556 109.691C68.2123 109.857 67.8422 109.973 67.4452 110.037C66.3895 110.209 65.5467 110.097 64.9168 109.701C64.2869 109.305 63.8954 108.64 63.7423 107.705L63.0488 103.471L64.7947 103.188L64.9095 103.889L65.0178 103.871C65.1176 103.689 65.2505 103.51 65.4164 103.336C65.5838 103.17 65.7872 103.026 66.0266 102.904C66.2645 102.773 66.5414 102.682 66.8572 102.631ZM66.6629 104.074C66.302 104.133 66.0122 104.258 65.7936 104.451C65.5675 104.654 65.4119 104.891 65.3268 105.163C65.2327 105.437 65.2084 105.713 65.2541 105.992C65.4688 106.058 65.7069 106.098 65.9684 106.111C66.2313 106.133 66.4936 106.123 66.7553 106.08C67.2786 105.995 67.6233 105.837 67.7894 105.607C67.9555 105.377 68.015 105.119 67.9679 104.831C67.9238 104.561 67.7922 104.352 67.5733 104.203C67.3453 104.056 67.0419 104.013 66.6629 104.074Z" fill="white"/>
<path d="M57.7489 103.288C58.4617 103.307 59.0929 103.478 59.6423 103.802C60.1823 104.135 60.605 104.583 60.9104 105.147C61.2064 105.719 61.345 106.365 61.3263 107.084C61.3075 107.804 61.1355 108.437 60.8103 108.984C60.476 109.531 60.0304 109.957 59.4738 110.261C58.908 110.566 58.2686 110.708 57.5558 110.69C56.779 110.67 56.1161 110.489 55.5671 110.147C55.0182 109.804 54.6284 109.321 54.3978 108.695L56.0607 108.055C56.1986 108.377 56.3982 108.615 56.6594 108.767C56.9204 108.929 57.2337 109.015 57.5993 109.024C57.9557 109.033 58.2778 108.955 58.5656 108.789C58.8532 108.633 59.0832 108.406 59.2555 108.11C59.4279 107.814 59.5195 107.457 59.5304 107.038C59.5414 106.619 59.4686 106.253 59.3122 105.939C59.1555 105.634 58.9378 105.392 58.659 105.211C58.3799 105.04 58.0622 104.95 57.7058 104.941C57.3037 104.93 56.9678 105.008 56.6983 105.174C56.4285 105.35 56.2073 105.59 56.0347 105.895L54.4493 105.143C54.7387 104.568 55.1668 104.11 55.7335 103.769C56.3003 103.429 56.9721 103.268 57.7489 103.288Z" fill="white"/>
<path d="M52.4944 108.563L52.2114 110.067L50.9444 109.83L51.2274 108.326L52.4944 108.563ZM50.0426 102.462C50.7525 102.595 51.2717 102.9 51.6002 103.378C51.9271 103.866 52.0232 104.467 51.8885 105.183L50.6481 111.776L48.8823 111.446L50.0621 105.176C50.1245 104.845 50.1034 104.586 49.9989 104.4C49.8927 104.222 49.6869 104.105 49.3814 104.048C49.2376 104.021 49.0995 104.014 48.9669 104.026C48.8327 104.048 48.6603 104.099 48.4497 104.18L48.7731 102.461C48.9842 102.427 49.1965 102.411 49.4099 102.413C49.616 102.406 49.8269 102.422 50.0426 102.462ZM49.5965 108.022L49.3135 109.525L47.5613 109.198L47.8442 107.694L49.5965 108.022Z" fill="white"/>
<path d="M40.4242 98.9887C41.1143 99.3244 41.6459 99.7654 42.019 100.312C42.3839 100.854 42.5757 101.469 42.5944 102.158C42.6009 102.85 42.4156 103.581 42.0385 104.35L39.4448 109.641L37.7936 108.837L40.4355 103.449C40.624 103.064 40.7288 102.684 40.7498 102.309C40.7668 101.942 40.688 101.605 40.5134 101.297C40.3265 100.994 40.0401 100.748 39.654 100.56C39.2596 100.368 38.8889 100.294 38.5418 100.338C38.1907 100.39 37.8751 100.536 37.5953 100.775C37.3114 101.022 37.0751 101.337 36.8866 101.722L34.2448 107.111L32.5935 106.308L35.1872 101.017C35.5443 100.289 35.9989 99.7142 36.551 99.2936C37.1031 98.873 37.7101 98.6311 38.3718 98.5679C39.0336 98.5047 39.7178 98.645 40.4242 98.9887Z" fill="white"/>
<path d="M33.1546 94.4769C33.6335 94.8425 33.9907 95.2241 34.2261 95.6218C34.4543 96.014 34.5874 96.4024 34.6255 96.7872C34.6636 97.1719 34.6305 97.5368 34.5264 97.8818L32.8274 97.4627C32.9042 97.1083 32.8903 96.7821 32.7854 96.4841C32.6751 96.1933 32.4784 95.94 32.1954 95.7239C31.9632 95.5467 31.7249 95.4222 31.4806 95.3505C31.2308 95.286 31.028 95.3549 30.8723 95.5573C30.7611 95.7019 30.7257 95.8527 30.7662 96.0098C30.7938 96.1686 30.8635 96.325 30.9752 96.4792C31.0815 96.6406 31.1996 96.7939 31.3298 96.9391L31.8745 97.5786C32.0985 97.8414 32.2746 98.1365 32.4029 98.4638C32.5256 98.7984 32.577 99.1359 32.557 99.4764C32.5242 99.8185 32.3938 100.138 32.1659 100.434C31.9101 100.767 31.5933 100.984 31.2156 101.086C30.8306 101.182 30.422 101.174 29.9898 101.062C29.5503 100.945 29.131 100.734 28.7319 100.429C28.3618 100.146 28.0613 99.8483 27.8305 99.5344C27.5997 99.2205 27.445 98.8902 27.3663 98.5433C27.282 98.2036 27.2802 97.8466 27.3609 97.4722L28.9887 97.8714C28.938 98.1769 28.9737 98.445 29.0956 98.6758C29.2103 98.901 29.3729 99.0939 29.5833 99.2546C29.8301 99.4429 30.0622 99.5455 30.2796 99.5623C30.497 99.5791 30.6558 99.5224 30.7558 99.3923C30.8615 99.2549 30.8807 99.0803 30.8134 98.8683C30.7461 98.6563 30.6303 98.4475 30.466 98.2418L29.7998 97.4234C29.3483 96.8723 29.0959 96.347 29.0426 95.8473C28.982 95.3421 29.1074 94.8871 29.4188 94.4823C29.6968 94.1208 30.0467 93.8831 30.4684 93.769C30.8846 93.6622 31.3289 93.6685 31.8012 93.7881C32.268 93.915 32.7191 94.1446 33.1546 94.4769Z" fill="white"/>
<path d="M22.5703 91.1756L22.6317 92.4557L20.9654 92.5231L20.8947 92.6319L21.4036 94.0978L20.1848 94.526L19.6823 93.0899L19.5731 93.0194L18.3518 93.9916L17.5471 92.9885L18.7684 92.0163L18.732 91.9053L17.4282 91.0896L18.1162 89.9998L19.4394 90.8176L19.5615 90.7729L19.9949 89.1688L21.2348 89.5108L20.797 91.1533L20.8655 91.2387L22.5703 91.1756Z" fill="white"/>
<path d="M19.4381 76.2463C19.7092 76.9132 19.8445 77.5857 19.844 78.2638C19.8316 78.937 19.6969 79.576 19.4397 80.1808C19.1826 80.7857 18.8156 81.3267 18.3389 81.804C17.8588 82.2728 17.284 82.6422 16.6146 82.9123C15.9452 83.1824 15.2743 83.3154 14.602 83.3115C13.9263 83.2992 13.2848 83.165 12.6777 82.9088C12.0705 82.6526 11.5316 82.2854 11.061 81.8071C10.5784 81.3238 10.2016 80.7487 9.93052 80.0819C9.73491 79.6007 9.61407 79.1336 9.56798 78.6806C9.51342 78.231 9.52766 77.7929 9.61071 77.3664C9.69033 76.9314 9.8328 76.5055 10.0381 76.0886L11.6965 76.8197C11.5567 77.0824 11.4552 77.3543 11.3919 77.6353C11.3252 77.9078 11.3026 78.1921 11.3243 78.4879C11.3459 78.7838 11.4219 79.0921 11.5523 79.4129C11.7823 79.9784 12.1229 80.4404 12.5744 80.7986C13.0139 81.1519 13.5216 81.3696 14.0974 81.4517C14.6733 81.5338 15.279 81.4467 15.9146 81.1903C16.5416 80.9373 17.0375 80.58 17.4022 80.1185C17.7585 79.6604 17.9753 79.1504 18.0526 78.5886C18.1181 78.0218 18.0359 77.4556 17.806 76.89C17.6001 76.3835 17.3123 75.9789 16.9426 75.676C16.5694 75.3648 16.1347 75.1324 15.6383 74.9789L16.3008 73.2968C16.7768 73.4486 17.2174 73.659 17.6226 73.9278C18.0193 74.2001 18.3705 74.5301 18.676 74.9178C18.9816 75.3054 19.2356 75.7483 19.4381 76.2463Z" fill="white"/>
<path d="M17.0414 67.3083C17.1519 68.0285 17.0917 68.6918 16.861 69.2981C16.6199 69.8968 16.2479 70.3956 15.7449 70.7946C15.2315 71.186 14.6269 71.4346 13.931 71.5405C13.2351 71.6464 12.5881 71.5883 11.9899 71.3661C11.3812 71.1363 10.8766 70.7708 10.4761 70.2698C10.0652 69.7612 9.80446 69.1467 9.694 68.4265C9.58355 67.7063 9.64888 67.0468 9.89001 66.4481C10.1311 65.8495 10.5039 65.3551 11.0082 64.9651C11.5112 64.5661 12.1106 64.3137 12.8065 64.2078C13.5023 64.1019 14.1546 64.1638 14.7632 64.3937C15.3615 64.6159 15.8654 64.9768 16.2749 65.4764C16.6755 65.9775 16.931 66.5881 17.0414 67.3083ZM15.3876 67.56C15.3351 67.2179 15.2106 66.919 15.0142 66.6633C14.8074 66.4 14.5417 66.2055 14.2172 66.0798C13.8823 65.9465 13.5025 65.9122 13.0778 65.9768C12.653 66.0415 12.3053 66.1865 12.0347 66.412C11.7627 66.6284 11.5674 66.893 11.449 67.2059C11.3291 67.5097 11.2947 67.8282 11.3458 68.1613C11.3982 68.5034 11.5286 68.8106 11.7368 69.083C11.9437 69.3463 12.21 69.5453 12.5359 69.6799C12.8604 69.8056 13.235 69.8361 13.6597 69.7715C14.0845 69.7068 14.4374 69.5656 14.7184 69.3478C14.989 69.1223 15.1836 68.8532 15.3021 68.5404C15.4102 68.2199 15.4386 67.8931 15.3876 67.56Z" fill="white"/>
<path d="M16.2364 61.7748L9.25042 61.444L9.33052 59.7656L10.2072 59.8071L10.2124 59.6979C9.8845 59.4727 9.63378 59.1645 9.46024 58.7734C9.27758 58.3818 9.19688 57.9631 9.21815 57.5174C9.25896 56.6623 9.54983 56.0333 10.0908 55.6304C10.6317 55.2275 11.3359 55.0465 12.2034 55.0876L16.5457 55.2933L16.4604 57.0808L12.3373 56.8856C11.8807 56.8639 11.528 56.9658 11.2793 57.191C11.0219 57.4068 10.8837 57.7148 10.8646 58.115C10.8489 58.4425 10.9266 58.7334 11.0975 58.9877C11.2597 59.2324 11.4882 59.4301 11.7831 59.5809C12.0692 59.7221 12.3949 59.8013 12.7602 59.8186L16.3217 59.9873L16.2364 61.7748Z" fill="white"/>
<path d="M11.4354 53.1245L9.9324 52.8094L10.1979 51.5528L11.7008 51.8679L11.4354 53.1245ZM17.6123 50.8177C17.4635 51.5217 17.1455 52.032 16.6582 52.3487C16.162 52.6635 15.556 52.7458 14.8403 52.5958L8.25133 51.2145L8.62127 49.4633L14.8882 50.7771C15.2192 50.8465 15.4793 50.8312 15.6686 50.7313C15.8489 50.6295 15.9711 50.4271 16.0351 50.1241C16.0652 49.9815 16.0756 49.844 16.0661 49.7118C16.0478 49.5776 16.0002 49.4048 15.9234 49.1933L17.6411 49.5533C17.6713 49.7644 17.6826 49.9762 17.6751 50.1887C17.6784 50.3941 17.6575 50.6038 17.6123 50.8177ZM12.0425 50.2503L10.5396 49.9353L10.9067 48.1974L12.4097 48.5125L12.0425 50.2503Z" fill="white"/>
<path d="M19.1057 46.3007C18.9284 46.7597 18.6812 47.1333 18.3641 47.4216C18.0418 47.6981 17.6748 47.8746 17.2633 47.951C16.8517 48.0274 16.4283 47.9822 15.9932 47.8154C15.541 47.642 15.1971 47.3785 14.9615 47.0247C14.7293 46.6624 14.599 46.2514 14.5709 45.7917C14.5461 45.3236 14.6272 44.8473 14.8144 44.3628C14.9162 44.0993 15.0252 43.8679 15.1414 43.6685C15.2524 43.4573 15.362 43.2749 15.4703 43.1212C15.5787 42.9676 15.6798 42.8454 15.7737 42.7545L15.4921 42.6465C15.1423 42.5124 14.8056 42.5346 14.4819 42.713C14.1498 42.8882 13.895 43.2053 13.7177 43.6643C13.5995 43.9702 13.5571 44.2955 13.5905 44.6401C13.6187 44.9729 13.7118 45.277 13.8699 45.5523L12.6115 46.2994C12.4206 45.9822 12.2854 45.6474 12.2061 45.295C12.1182 44.9393 12.093 44.5734 12.1305 44.1975C12.1595 43.8183 12.2462 43.4416 12.3906 43.0677C12.7748 42.0732 13.2974 41.4051 13.9585 41.0633C14.6195 40.7214 15.3937 40.7206 16.2811 41.0608L20.2997 42.6014L19.6644 44.2461L18.9989 43.9909L18.9595 44.0929C19.0671 44.2708 19.1546 44.4751 19.2222 44.706C19.2812 44.9335 19.3032 45.181 19.288 45.4484C19.2814 45.7191 19.2206 46.0032 19.1057 46.3007ZM17.953 45.405C18.0843 45.065 18.1218 44.7525 18.0654 44.4674C18.0038 44.1705 17.8765 43.9168 17.6835 43.7062C17.4939 43.4871 17.2668 43.3269 17.0023 43.2255C16.8362 43.3765 16.6816 43.5612 16.5385 43.7796C16.3868 43.9946 16.2634 44.2254 16.1681 44.4719C15.9777 44.9649 15.9402 45.3409 16.0557 45.5998C16.1711 45.8588 16.3654 46.0406 16.6384 46.1452C16.8944 46.2434 17.1422 46.2359 17.3818 46.1228C17.6247 46.0013 17.8151 45.762 17.953 45.405Z" fill="white"/>
<path d="M23.1165 38.1817C22.7399 38.785 22.2724 39.2407 21.7139 39.549C21.1526 39.8447 20.5506 39.9812 19.908 39.9585C19.2625 39.9233 18.6331 39.7157 18.0198 39.3358C17.4065 38.9559 16.9451 38.4877 16.6357 37.9314C16.331 37.3674 16.1877 36.7692 16.2056 36.1368C16.2284 35.4968 16.4281 34.8751 16.8046 34.2718C17.215 33.6145 17.7072 33.1365 18.2811 32.8378C18.8551 32.5392 19.4712 32.449 20.1295 32.5672L19.8428 34.32C19.4938 34.2754 19.1872 34.3268 18.923 34.4741C18.651 34.6166 18.4185 34.8426 18.2254 35.1519C18.0371 35.4535 17.9419 35.7699 17.9397 36.101C17.9298 36.4274 18.0095 36.7395 18.1788 37.0374C18.3481 37.3353 18.6113 37.5949 18.9685 37.8161C19.3256 38.0373 19.6796 38.1601 20.0304 38.1844C20.3735 38.2039 20.6937 38.1394 20.9908 37.9911C21.2802 37.8379 21.5191 37.6105 21.7074 37.3088C21.9198 36.9686 22.0222 36.6406 22.0147 36.3249C21.9995 36.0045 21.9033 35.6929 21.7262 35.3901L23.1791 34.408C23.5311 34.9478 23.7113 35.5473 23.7196 36.2067C23.7279 36.866 23.5268 37.5243 23.1165 38.1817Z" fill="white"/>
<path d="M21.2113 30.9961L20.0523 29.9921L20.8982 29.0231L22.0572 30.0271L21.2113 30.9961ZM27.7342 31.9762C27.2602 32.519 26.7331 32.8106 26.1527 32.8509C25.5654 32.8853 24.9958 32.6634 24.4439 32.1853L19.3632 27.7838L20.542 26.4334L25.3744 30.6198C25.6297 30.8409 25.8644 30.9537 26.0785 30.9582C26.2858 30.9567 26.4914 30.8392 26.6954 30.6055C26.7914 30.4956 26.8676 30.3805 26.924 30.2604C26.9735 30.1343 27.0164 29.9603 27.0527 29.7383L28.3772 30.8857C28.3004 31.0847 28.2068 31.2752 28.0964 31.4572C27.9989 31.6382 27.8782 31.8112 27.7342 31.9762ZM23.1461 28.7798L21.9871 27.7758L23.157 26.4358L24.3159 27.4398L23.1461 28.7798Z" fill="white"/>
<path d="M35.5886 25.4609C34.9502 25.886 34.3001 26.1217 33.6384 26.168C32.9842 26.2092 32.3539 26.0647 31.7475 25.7345C31.1436 25.3917 30.6029 24.8645 30.1253 24.1528L26.8408 19.2578L28.3685 18.2406L31.714 23.2264C31.9528 23.5822 32.2295 23.8635 32.5442 24.0703C32.8538 24.2694 33.1861 24.3713 33.5411 24.376C33.8986 24.3679 34.256 24.245 34.6132 24.0071C34.978 23.7642 35.2287 23.4823 35.3652 23.1613C35.4967 22.8328 35.5292 22.488 35.4629 22.1269C35.3914 21.7582 35.2363 21.3959 34.9975 21.04L31.652 16.0542L33.1798 15.037L36.4643 19.9319C36.9164 20.6058 37.186 21.2862 37.2731 21.9731C37.3601 22.66 37.2646 23.3043 36.9864 23.9058C36.7082 24.5073 36.2423 25.0256 35.5886 25.4609Z" fill="white"/>
<path d="M43.1622 21.47C42.6039 21.6981 42.093 21.8132 41.6296 21.8155C41.1746 21.8143 40.7706 21.7332 40.4178 21.5722C40.065 21.4111 39.7652 21.1989 39.5185 20.9355L40.7377 19.6845C41.0064 19.9292 41.2963 20.0814 41.6075 20.1414C41.9152 20.1928 42.234 20.1512 42.5639 20.0165C42.8346 19.9059 43.0626 19.7636 43.2478 19.5895C43.4296 19.407 43.472 19.1978 43.3749 18.9618C43.3055 18.7933 43.1925 18.6869 43.036 18.6426C42.8844 18.5863 42.7136 18.5675 42.5236 18.586C42.3301 18.5962 42.1377 18.6206 41.9462 18.6595L41.1172 18.8061C40.7765 18.8665 40.4319 18.8695 40.0834 18.8149C39.7314 18.752 39.4128 18.6262 39.1277 18.4375C38.8475 18.237 38.6364 17.9639 38.4942 17.6185C38.3346 17.2308 38.3059 16.8489 38.4079 16.4725C38.5184 16.0928 38.731 15.7451 39.0458 15.4295C39.369 15.1105 39.7632 14.856 40.2284 14.666C40.6598 14.4898 41.0698 14.3814 41.4582 14.3409C41.8466 14.3004 42.2111 14.3336 42.5516 14.4406C42.8886 14.5392 43.1991 14.7175 43.4831 14.9755L42.3169 16.1753C42.0775 15.9778 41.8271 15.8734 41.5655 15.8621C41.3124 15.8473 41.0632 15.89 40.8179 15.9902C40.5303 16.1077 40.3245 16.2557 40.2004 16.4344C40.0763 16.613 40.0455 16.7782 40.1079 16.9299C40.1738 17.09 40.3156 17.1944 40.5333 17.2433C40.7511 17.2922 40.9905 17.2978 41.2516 17.26L42.2969 17.0989C43.0022 16.988 43.5849 17.0354 44.0451 17.2412C44.5137 17.4435 44.8451 17.7806 45.0393 18.2525C45.2127 18.6738 45.2427 19.0947 45.1291 19.5151C45.0122 19.927 44.7828 20.3062 44.4412 20.6524C44.0961 20.9902 43.6697 21.2628 43.1622 21.47Z" fill="white"/>
<path d="M51.3606 14.0371L50.221 13.4423L51.0056 11.9764L50.9472 11.8606L49.4203 11.5563L49.6661 10.2924L51.1639 10.587L51.2801 10.5288L51.056 8.98758L52.3318 8.80353L52.5559 10.3448L52.6703 10.3697L54.0362 9.66191L54.6319 10.8045L53.2544 11.5277L53.2314 11.6553L54.4011 12.8392L53.4778 13.7316L52.2769 12.5245L52.1684 12.5402L51.3606 14.0371Z" fill="white"/>
<circle cx="60" cy="60" r="32" fill="white"/>
<path d="M75.9027 57.7862C76.0867 59.2609 76.084 60.7518 75.9054 62.2266C75.578 61.9045 75.2452 61.588 74.9204 61.266C74.3468 61.8423 73.7758 62.416 73.1995 62.9896C73.8814 63.6743 74.566 64.3588 75.2506 65.0461C75.0179 65.6441 74.7825 66.2448 74.5416 66.8401C73.6676 65.9824 72.8153 65.1029 71.9332 64.2533C71.3623 64.8269 70.7886 65.4033 70.215 65.9742C71.227 66.9998 72.2579 68.0117 73.2726 69.0373C72.9154 69.5135 72.5528 69.9871 72.1822 70.4552C69.1381 67.3975 66.0561 64.3724 63.039 61.2823C62.4004 61.8045 61.8349 62.4025 61.2612 62.9924C64.3216 66.0608 67.3901 69.1239 70.4531 72.1896C69.9795 72.5603 69.5006 72.9229 69.0108 73.2719C65.9992 70.2657 63.0309 67.2108 59.9597 64.2668C59.4077 64.8431 58.8422 65.406 58.2766 65.9688C61.1097 68.8398 63.986 71.6728 66.8245 74.541C66.2346 74.7845 65.6393 75.0227 65.0414 75.2526C62.3571 72.5901 59.7 69.895 57.0076 67.2379C56.4367 67.8115 55.8657 68.3825 55.2921 68.9507C57.584 71.2885 59.9246 73.5777 62.2218 75.9074C60.7445 76.0834 59.2508 76.0807 57.7734 75.9129C58.0981 75.5882 58.4147 75.2554 58.7394 74.9306C58.1685 74.3462 57.5921 73.7698 56.9941 73.2124C56.3285 73.897 55.6466 74.5653 54.9782 75.2472C54.3694 75.0254 53.7687 74.79 53.168 74.5464C54.0258 73.6751 54.8944 72.8146 55.7548 71.9461C55.1839 71.3616 54.6048 70.788 54.0123 70.2278C53.003 71.2507 51.9856 72.2599 50.9709 73.2773C50.4946 72.9202 50.0211 72.5576 49.5503 72.1896C57.0889 64.6348 64.6437 57.0989 72.1849 49.5469C72.5529 50.0204 72.9154 50.4994 73.2672 50.9837C70.2556 53.9872 67.2493 56.9961 64.2431 60.0051C64.8194 60.5814 65.3931 61.1578 65.9668 61.7314C68.8296 58.8903 71.6681 56.0247 74.5281 53.1781C74.7771 53.768 75.0179 54.3606 75.2533 54.9559C72.588 57.6428 69.9011 60.3081 67.2304 62.9924C67.8013 63.5633 68.3723 64.1397 68.9405 64.716C71.2838 62.4267 73.5675 60.078 75.9027 57.7862Z" fill="#C19A5B"/>
<path d="M69.0378 46.7266C69.5114 47.0892 69.9822 47.4518 70.4503 47.8198C62.9063 55.3664 55.3651 62.9213 47.8076 70.4571C47.4423 69.9835 47.0824 69.51 46.728 69.0338C49.7369 66.0248 52.7512 63.0186 55.7548 60.0042C55.1811 59.4252 54.6047 58.8489 54.0257 58.2779C51.1602 61.1164 48.3434 64.0035 45.4508 66.8176C45.1964 66.2196 44.961 65.6108 44.7635 64.9912C47.464 62.3692 50.0995 59.6742 52.7675 57.0197C52.1939 56.4406 51.6202 55.8643 51.0412 55.2906C48.7222 57.5987 46.425 59.9285 44.0925 62.2257C43.9166 60.7484 43.9166 59.2574 44.0898 57.7827C44.4145 58.102 44.7473 58.4159 45.0693 58.7379C45.651 58.1723 46.2274 57.5987 46.7984 57.0197C46.1273 56.3405 45.4562 55.664 44.7663 55.0038C44.9773 54.3923 45.2019 53.7888 45.4373 53.1908C46.3438 54.0107 47.1799 54.9009 48.0539 55.756C48.6383 55.1878 49.2147 54.6141 49.7829 54.0297C48.7655 53.0095 47.7454 51.9921 46.7253 50.972C47.0852 50.4931 47.4451 50.0195 47.813 49.5487C50.8815 52.6118 53.9446 55.6802 57.0103 58.7432C57.592 58.175 58.1711 57.5986 58.7421 57.0169C55.6789 53.9486 52.6078 50.891 49.5474 47.8171C50.0182 47.449 50.4891 47.0865 50.9653 46.7266C53.9715 49.7382 56.9858 52.7417 59.9867 55.7561C60.5793 55.1933 61.1556 54.6169 61.7239 54.0298C58.8746 51.1724 56.0118 48.3285 53.1679 45.463C53.7686 45.206 54.3801 44.9706 55.0025 44.7649C57.619 47.4599 60.3222 50.0684 62.9469 52.758C63.5665 52.2223 64.1402 51.6351 64.7111 51.0452C62.4003 48.729 60.0814 46.4182 57.7705 44.102C59.2506 43.9126 60.747 43.918 62.2244 44.0938C61.9024 44.4213 61.5858 44.7541 61.2611 45.0815C61.8347 45.6551 62.4057 46.2288 62.9793 46.8024C63.672 46.1232 64.3566 45.436 65.0412 44.7486C65.6392 44.9786 66.2372 45.2195 66.827 45.4684C65.972 46.3397 65.098 47.1921 64.2429 48.0661C64.8166 48.6316 65.3821 49.1998 65.9395 49.7762C67.0138 48.8047 68.0042 47.7413 69.0378 46.7266Z" fill="#C19A5B"/>
<path d="M59.9999 77C50.626 77 43 69.3738 43 59.9999C43 50.626 50.626 43 59.9999 43C69.3738 43 76.9998 50.626 76.9998 59.9999C76.9998 69.3738 69.3738 77 59.9999 77ZM59.9999 44.0576C51.2093 44.0576 44.0576 51.2093 44.0576 59.9999C44.0576 68.7907 51.2093 75.9424 59.9999 75.9424C68.7904 75.9424 75.9422 68.7907 75.9422 59.9999C75.9422 51.2093 68.7904 44.0576 59.9999 44.0576Z" fill="#C19A5B"/>
</svg>
