<svg width="150" height="150" viewBox="0 0 150 150" fill="none" xmlns="http://www.w3.org/2000/svg">
<circle cx="75" cy="75" r="75" fill="#C19A5B"/>
<path d="M81.8181 22.9551C80.9412 22.8446 80.1459 22.5853 79.4325 22.1773C78.7303 21.7707 78.1337 21.2524 77.6427 20.6223C77.163 19.9937 76.8119 19.2961 76.5897 18.5295C76.3801 17.7531 76.3286 16.9455 76.4354 16.1066C76.5422 15.2678 76.7943 14.4984 77.1919 13.7985C77.6006 13.1 78.1161 12.5058 78.7382 12.016C79.3715 11.5276 80.0792 11.1735 80.8611 10.9538C81.6557 10.7244 82.4915 10.6649 83.3685 10.7753C84.3691 10.9014 85.1974 11.1705 85.8532 11.5826C86.5216 11.985 87.0599 12.513 87.4679 13.1667L85.5977 14.397C85.3271 14.0107 84.979 13.6941 84.5534 13.4473C84.1293 13.1894 83.6418 13.0257 83.0909 12.9563C82.3376 12.8614 81.657 12.9575 81.0493 13.2446C80.4528 13.5331 79.9651 13.9546 79.5861 14.5092C79.207 15.0637 78.972 15.6989 78.8808 16.4146C78.7897 17.1304 78.8582 17.8038 79.0864 18.4348C79.3145 19.0659 79.6812 19.595 80.1866 20.0223C80.7032 20.451 81.3382 20.7128 82.0915 20.8077C83.0247 20.9252 83.8057 20.802 84.4347 20.438C85.065 20.0629 85.506 19.4253 85.7577 18.5251L81.8745 18.0701L82.1435 15.9563L88.2993 16.7316C88.299 16.9134 88.2881 17.1336 88.2666 17.3923C88.2578 17.6412 88.2413 17.8607 88.2171 18.0508C88.079 19.1357 87.7253 20.0741 87.1562 20.866C86.5996 21.6482 85.8628 22.2315 84.9457 22.616C84.0412 22.9907 82.9987 23.1038 81.8181 22.9551Z" fill="white"/>
<path d="M93.002 25.687C92.1494 25.3801 91.4695 24.9136 90.9621 24.2873C90.4547 23.6611 90.1375 22.9594 90.0104 22.1823C89.8979 21.3985 89.9862 20.609 90.2754 19.814C90.5647 19.0189 91.0153 18.3599 91.6274 17.8369C92.2434 17.3033 92.9424 16.9555 93.7245 16.7935C94.5173 16.6352 95.3293 16.7057 96.1605 17.005C96.9917 17.3042 97.6504 17.7631 98.1364 18.3817C98.6332 19.0041 98.9359 19.7125 99.0446 20.507C99.1678 21.2946 99.0848 22.086 98.7956 22.8811C98.7531 22.9977 98.7035 23.1177 98.6465 23.241C98.5896 23.3644 98.5254 23.4912 98.454 23.6213L92.2357 21.3828C92.1755 21.9127 92.2653 22.3946 92.5052 22.8286C92.7557 23.2665 93.1527 23.5832 93.6962 23.7789C94.1651 23.9477 94.6086 23.9875 95.0267 23.8982C95.4555 23.8128 95.8237 23.6456 96.1312 23.3966L97.3527 25.257C96.8333 25.6575 96.1835 25.9032 95.4033 25.994C94.623 26.0847 93.8226 25.9824 93.002 25.687ZM95.4575 18.838C94.946 18.6539 94.4531 18.6503 93.9789 18.8273C93.5048 19.0043 93.1184 19.3208 92.82 19.7768L96.9282 21.2557C96.9768 20.7577 96.8744 20.2772 96.6209 19.8143C96.3781 19.3553 95.9903 19.0298 95.4575 18.838Z" fill="white"/>
<path d="M101.236 29.2496C100.469 28.8347 99.9846 28.3286 99.7823 27.7314C99.58 27.1342 99.709 26.4147 100.169 25.573L102.152 21.9486L101.062 21.3586L101.996 19.6504L103.086 20.2404L103.939 18.6808L106.069 19.5639L105.102 21.3315L106.745 22.2206L105.81 23.9288L104.168 23.0397L102.242 26.5601C101.982 27.0355 102.061 27.3863 102.479 27.6126L103.316 28.0652L102.341 29.8477L101.236 29.2496Z" fill="white"/>
<path d="M106.082 32.3736L113.308 22.9688L115.199 24.4064L107.973 33.8113L106.082 32.3736Z" fill="white"/>
<path d="M109.612 34.9722L115.888 28.7796L117.48 30.3764L116.563 31.2815C117.598 30.911 118.587 31.198 119.528 32.1424C119.975 32.5906 120.274 33.0981 120.424 33.6647C120.574 34.2312 120.559 34.8091 120.381 35.3983C120.202 35.9875 119.847 36.5441 119.316 37.0681L115.478 40.8551L113.862 39.2343L117.301 35.8403C117.849 35.3004 118.119 34.7873 118.113 34.301C118.115 33.8068 117.917 33.3596 117.518 32.9594C117.174 32.6152 116.746 32.4341 116.234 32.4161C115.737 32.3982 115.215 32.6591 114.668 33.199L111.228 36.593L109.612 34.9722Z" fill="white"/>
<path d="M119.926 47.1879L128.211 42.0597L126.414 39.1882L128.233 38.0625L133.083 45.8157L131.264 46.9414L129.468 44.0698L121.183 49.198L119.926 47.1879Z" fill="white"/>
<path d="M123.944 55.5468C123.607 54.7095 123.501 53.8837 123.625 53.0693C123.749 52.2549 124.056 51.5316 124.546 50.8992C125.051 50.2732 125.698 49.8031 126.487 49.4889C127.276 49.1747 128.071 49.0709 128.87 49.1775C129.674 49.2946 130.404 49.6053 131.058 50.1097C131.713 50.6141 132.209 51.2849 132.545 52.1222C132.887 52.97 132.993 53.7959 132.865 54.5998C132.741 55.4141 132.426 56.1344 131.921 56.7604C131.421 57.3969 130.776 57.8723 129.987 58.1865C129.197 58.5007 128.401 58.5992 127.597 58.4821C126.808 58.3714 126.086 58.0638 125.431 57.5594C124.781 57.0655 124.285 56.3946 123.944 55.5468ZM125.885 54.774C126.066 55.224 126.329 55.5746 126.675 55.8257C127.03 56.0727 127.423 56.2139 127.852 56.2494C128.286 56.2954 128.713 56.2346 129.134 56.067C129.565 55.8953 129.922 55.644 130.204 55.3132C130.49 54.9928 130.671 54.6233 130.747 54.2045C130.833 53.7817 130.785 53.3452 130.604 52.8951C130.423 52.4451 130.155 52.0966 129.799 51.8496C129.454 51.5985 129.064 51.4499 128.631 51.404C128.202 51.3685 127.771 51.4366 127.34 51.6083C126.919 51.7759 126.565 52.0199 126.279 52.3402C125.997 52.671 125.813 53.0479 125.727 53.4708C125.651 53.8895 125.704 54.3239 125.885 54.774Z" fill="white"/>
<path d="M126.709 64.685C126.594 64.0643 126.634 63.4778 126.831 62.9256C127.028 62.3733 127.367 61.9038 127.848 61.5171C128.341 61.1282 128.949 60.867 129.673 60.7335L134.989 59.7539L135.407 61.9986L130.643 62.8766C129.896 63.0142 129.378 63.2645 129.089 63.6274C128.799 63.9904 128.706 64.449 128.809 65.0032C128.898 65.4799 129.148 65.8638 129.559 66.1548C129.973 66.4569 130.553 66.5392 131.3 66.4016L136.063 65.5236L136.482 67.7683L127.79 69.3703L127.384 67.1921L128.688 66.9518C128.147 66.8336 127.71 66.593 127.378 66.2301C127.058 65.8762 126.835 65.3612 126.709 64.685Z" fill="white"/>
<path d="M127.727 75.5478C127.727 74.9165 127.846 74.3247 128.084 73.7724C128.323 73.2313 128.652 72.7523 129.071 72.3354C129.502 71.9184 129.995 71.5917 130.55 71.3552C131.117 71.1299 131.723 71.0174 132.369 71.0177C133.231 71.018 134.007 71.2156 134.698 71.6105C135.401 72.0166 135.961 72.5692 136.381 73.2684C136.8 73.9788 137.009 74.7793 137.009 75.6699C137.02 76.4703 136.878 77.1861 136.583 77.8174C136.288 78.4486 135.88 78.9501 135.358 79.3219L133.914 77.5626C134.22 77.3598 134.464 77.095 134.645 76.7681C134.827 76.4525 134.917 76.0975 134.918 75.7029C134.918 75.2181 134.799 74.7953 134.561 74.4345C134.335 74.0736 134.029 73.7917 133.643 73.5886C133.258 73.3968 132.833 73.3008 132.369 73.3006C131.915 73.3004 131.49 73.4017 131.093 73.6045C130.708 73.8185 130.396 74.1059 130.158 74.4665C129.931 74.8385 129.818 75.2668 129.818 75.7516C129.817 76.1913 129.914 76.5633 130.106 76.8678C130.31 77.1723 130.565 77.4373 130.871 77.6629L129.425 79.3195C128.893 78.9022 128.474 78.3834 128.168 77.7633C127.873 77.1544 127.726 76.4159 127.727 75.5478Z" fill="white"/>
<path d="M127.803 80.8536L140 83.1289L139.577 85.3727L134.865 84.4937C135.713 85.1337 136.017 86.0908 135.777 87.365C135.66 87.9855 135.41 88.5181 135.026 88.9627C134.642 89.4073 134.156 89.7237 133.567 89.9121C132.978 90.1004 132.316 90.126 131.581 89.9889L126.267 88.9977L126.69 86.7539L131.452 87.6422C132.21 87.7835 132.788 87.7136 133.187 87.4325C133.597 87.1534 133.854 86.7368 133.959 86.1828C134.049 85.7063 133.955 85.2531 133.679 84.823C133.412 84.4061 132.899 84.127 132.142 83.9857L127.38 83.0974L127.803 80.8536Z" fill="white"/>
<path d="M129.996 100.675L129.641 99.167L131.506 98.9056L130.412 97.3983L131.755 96.5863L132.588 98.3145L133.711 96.804L134.903 97.8201L133.538 99.1185L135.304 99.6968L134.695 101.13L133.055 100.255L133.05 102.089L131.48 101.961L131.826 100.105L129.996 100.675Z" fill="white"/>
<path d="M117.227 106.598C117.753 105.891 118.369 105.327 119.075 104.907C119.775 104.497 120.521 104.232 121.313 104.114C122.099 104.004 122.883 104.04 123.664 104.222C124.447 104.419 125.181 104.769 125.864 105.272C126.548 105.774 127.099 106.369 127.519 107.056C127.932 107.752 128.202 108.49 128.327 109.269C128.446 110.057 128.411 110.844 128.222 111.63C128.035 112.432 127.679 113.187 127.154 113.894C126.554 114.701 125.913 115.288 125.232 115.656C124.552 116.04 123.826 116.249 123.053 116.284L122.888 114.06C123.359 114.013 123.807 113.866 124.231 113.617C124.664 113.375 125.046 113.032 125.376 112.587C125.827 111.98 126.076 111.342 126.121 110.675C126.159 110.016 126.027 109.387 125.726 108.787C125.425 108.187 124.983 107.673 124.399 107.244C123.816 106.815 123.192 106.546 122.527 106.435C121.862 106.325 121.219 106.385 120.597 106.615C119.968 106.854 119.429 107.277 118.977 107.884C118.418 108.637 118.145 109.375 118.157 110.099C118.178 110.829 118.522 111.524 119.189 112.182L121.485 109.033L123.207 110.3L119.52 115.264C119.361 115.175 119.173 115.058 118.957 114.913C118.743 114.783 118.558 114.662 118.403 114.548C117.519 113.898 116.869 113.133 116.452 112.252C116.038 111.387 115.886 110.462 115.997 109.478C116.11 108.51 116.52 107.55 117.227 106.598Z" fill="white"/>
<path d="M109.367 114.983C110.051 114.391 110.792 114.027 111.589 113.891C112.386 113.755 113.156 113.821 113.901 114.088C114.644 114.372 115.294 114.833 115.852 115.471C116.409 116.109 116.769 116.822 116.93 117.608C117.099 118.403 117.064 119.18 116.826 119.938C116.579 120.704 116.122 121.376 115.455 121.952C114.788 122.529 114.064 122.878 113.284 123C112.496 123.128 111.726 123.047 110.976 122.755C110.224 122.478 109.569 122.021 109.012 121.383C108.93 121.289 108.849 121.188 108.768 121.078C108.688 120.969 108.608 120.851 108.528 120.726L113.52 116.411C113.084 116.101 112.617 115.945 112.119 115.942C111.613 115.947 111.141 116.137 110.705 116.515C110.328 116.84 110.078 117.206 109.953 117.613C109.819 118.027 109.787 118.428 109.856 118.817L107.627 118.973C107.528 118.327 107.629 117.642 107.929 116.92C108.229 116.198 108.708 115.552 109.367 114.983ZM114.187 120.449C114.598 120.095 114.841 119.668 114.916 119.17C114.991 118.672 114.901 118.182 114.646 117.701L111.348 120.551C111.762 120.836 112.234 120.98 112.763 120.985C113.285 120.998 113.759 120.819 114.187 120.449Z" fill="white"/>
<path d="M102.239 120.412C102.975 119.947 103.655 119.772 104.278 119.886C104.901 120 105.471 120.461 105.987 121.27L108.21 124.754L109.258 124.093L110.305 125.735L109.258 126.396L110.214 127.895L108.404 129.318L107.32 127.619L105.741 128.616L104.694 126.974L106.272 125.977L104.113 122.594C103.822 122.137 103.475 122.035 103.073 122.289L102.27 122.796L101.176 121.083L102.239 120.412Z" fill="white"/>
<path d="M97.1237 123.118L101.871 133.973L99.6891 134.917L94.9414 124.063L97.1237 123.118Z" fill="white"/>
<path d="M93.1383 124.917L95.5142 133.387L93.3364 133.991L92.9892 132.753C92.8097 133.833 92.0759 134.552 90.7878 134.909C90.1765 135.079 89.5856 135.091 89.0152 134.945C88.4447 134.799 87.9445 134.505 87.5145 134.062C87.0844 133.62 86.7689 133.04 86.5679 132.323L85.1149 127.144L87.3254 126.53L88.6276 131.172C88.8347 131.911 89.1532 132.396 89.583 132.628C90.0158 132.87 90.5051 132.916 91.0509 132.764C91.5203 132.634 91.8879 132.351 92.1537 131.914C92.4117 131.491 92.4371 130.911 92.2299 130.172L90.9277 125.53L93.1383 124.917Z" fill="white"/>
<path d="M77.3831 127.91L77.8343 137.606L81.2306 137.45L81.3297 139.578L72.1596 140L72.0606 137.872L75.4569 137.716L75.0057 128.019L77.3831 127.91Z" fill="white"/>
<path d="M68.0089 127.318C68.908 127.433 69.6848 127.744 70.3391 128.248C70.9934 128.753 71.4785 129.373 71.7944 130.107C72.0977 130.85 72.1948 131.642 72.0858 132.48C71.9767 133.319 71.6804 134.059 71.1969 134.702C70.7022 135.343 70.0738 135.825 69.312 136.147C68.5501 136.47 67.7196 136.573 66.8204 136.458C65.91 136.341 65.1333 136.03 64.4902 135.527C63.8359 135.022 63.3571 134.398 63.0539 133.654C62.7394 132.909 62.6367 132.117 62.7457 131.278C62.8547 130.44 63.1566 129.7 63.6514 129.059C64.1335 128.428 64.7554 127.951 65.5173 127.628C66.268 127.304 67.0985 127.201 68.0089 127.318ZM67.7407 129.38C67.2574 129.318 66.8213 129.376 66.4326 129.553C66.0424 129.742 65.727 130.014 65.4865 130.369C65.2348 130.723 65.0799 131.124 65.0217 131.571C64.9621 132.03 65.0087 132.462 65.1616 132.868C65.3033 133.273 65.5394 133.61 65.87 133.88C66.1991 134.161 66.6053 134.333 67.0886 134.395C67.5719 134.457 68.0087 134.394 68.3989 134.205C68.7876 134.028 69.1078 133.762 69.3596 133.408C69.6001 133.053 69.7501 132.646 69.8097 132.187C69.8679 131.74 69.8262 131.314 69.6845 130.909C69.5316 130.503 69.2906 130.16 68.9615 129.879C68.6309 129.609 68.224 129.443 67.7407 129.38Z" fill="white"/>
<path d="M58.6501 125.269C59.2514 125.471 59.7465 125.792 60.1355 126.232C60.5244 126.672 60.7714 127.195 60.8766 127.801C60.9781 128.418 60.911 129.074 60.6754 129.768L58.946 134.863L56.7716 134.133L58.3216 129.567C58.5645 128.851 58.5972 128.279 58.4196 127.851C58.2421 127.422 57.8849 127.118 57.348 126.937C56.8863 126.782 56.4275 126.813 55.9715 127.028C55.5047 127.24 55.1499 127.704 54.907 128.42L53.3571 132.986L51.1827 132.256L54.0106 123.924L56.1206 124.633L55.6964 125.883C56.0636 125.471 56.4875 125.209 56.9682 125.096C57.4345 124.991 57.9951 125.049 58.6501 125.269Z" fill="white"/>
<path d="M48.6437 120.866C49.1974 121.175 49.6583 121.567 50.0264 122.044C50.3846 122.515 50.6441 123.034 50.8049 123.602C50.9602 124.18 51.0059 124.767 50.942 125.365C50.8627 125.967 50.6652 126.548 50.3494 127.109C49.9283 127.856 49.3758 128.434 48.6918 128.841C47.9924 129.252 47.2337 129.469 46.4157 129.491C45.5879 129.508 44.7834 129.298 44.0024 128.863C43.2949 128.481 42.7364 128.008 42.3268 127.444C41.9172 126.88 41.6767 126.28 41.6052 125.646L43.854 125.252C43.8823 125.617 43.9955 125.958 44.1936 126.275C44.3818 126.587 44.6489 126.839 44.9949 127.032C45.4201 127.269 45.849 127.372 46.2817 127.342C46.7089 127.322 47.1056 127.194 47.472 126.959C47.8284 126.718 48.1202 126.396 48.3474 125.993C48.569 125.599 48.6878 125.181 48.7037 124.738C48.7042 124.299 48.6045 123.888 48.4045 123.505C48.189 123.126 47.8687 122.818 47.4436 122.581C47.058 122.366 46.6847 122.268 46.3235 122.287C45.9569 122.315 45.5999 122.407 45.2526 122.562L44.5056 120.498C45.1318 120.239 45.7916 120.129 46.485 120.167C47.1629 120.209 47.8825 120.442 48.6437 120.866Z" fill="white"/>
<path d="M43.9743 118.351L36.0176 127.824L34.2565 126.361L37.3301 122.701C36.3545 123.124 35.3666 122.92 34.3664 122.089C33.8793 121.684 33.5346 121.207 33.3322 120.656C33.1297 120.106 33.0898 119.529 33.2125 118.926C33.3351 118.323 33.6363 117.736 34.1158 117.165L37.5819 113.038L39.3431 114.502L36.2367 118.2C35.7426 118.789 35.5213 119.325 35.573 119.808C35.6173 120.301 35.8569 120.727 36.2918 121.089C36.6658 121.4 37.1089 121.54 37.6211 121.51C38.1174 121.482 38.6126 121.174 39.1068 120.586L42.2131 116.887L43.9743 118.351Z" fill="white"/>
<path d="M25.5174 110.598L27.015 111.023L26.3375 112.771L28.1935 112.553L28.2538 114.115L26.3303 113.999L27.111 115.709L25.6386 116.251L25.162 114.434L23.795 115.687L22.8331 114.461L24.3987 113.46L22.7902 112.564L23.6666 111.262L25.1279 112.466L25.5174 110.598Z" fill="white"/>
<path d="M26.5245 96.6268C26.8905 97.4272 27.0862 98.2366 27.1118 99.0548C27.1326 99.8628 27.0024 100.64 26.7212 101.386C26.4353 102.123 26.0228 102.786 25.4836 103.377C24.9294 103.962 24.2654 104.43 23.4917 104.78C22.718 105.13 21.9274 105.32 21.1198 105.351C20.3076 105.372 19.5286 105.248 18.7828 104.978C18.0324 104.698 17.358 104.285 16.7594 103.739C16.1459 103.186 15.6561 102.51 15.2901 101.71C14.8725 100.796 14.6678 99.9539 14.6761 99.1823C14.6694 98.4051 14.8385 97.6722 15.1835 96.9835L17.2181 97.9207C17.0297 98.3528 16.9416 98.8137 16.9539 99.3035C16.9559 99.798 17.0719 100.297 17.3018 100.8C17.6162 101.487 18.0557 102.013 18.6204 102.376C19.1805 102.73 19.7972 102.922 20.4707 102.951C21.1441 102.981 21.811 102.846 22.4712 102.548C23.1314 102.249 23.6716 101.837 24.0917 101.313C24.5117 100.788 24.7719 100.2 24.8721 99.548C24.9676 98.8855 24.8581 98.2105 24.5438 97.5229C24.1543 96.6712 23.6388 96.0746 22.9972 95.7333C22.3452 95.3967 21.5681 95.3581 20.6659 95.6177L22.3156 99.1441L20.3658 100.026L17.7969 94.4078C17.9526 94.3126 18.1467 94.2062 18.3793 94.0886C18.5969 93.9654 18.7933 93.8641 18.9687 93.7847C19.9694 93.332 20.9579 93.1386 21.9343 93.2046C22.8957 93.2651 23.7817 93.5825 24.5922 94.1571C25.3877 94.726 26.0318 95.5493 26.5245 96.6268Z" fill="white"/>
<path d="M22.9879 85.6964C23.1723 86.5795 23.1294 87.4001 22.8594 88.1582C22.5893 88.9163 22.155 89.5529 21.5565 90.068C20.9445 90.5744 20.2224 90.9135 19.3902 91.0854C18.558 91.2573 17.7575 91.2211 16.9889 90.9769C16.2092 90.7349 15.5449 90.3252 14.9961 89.7477C14.445 89.1592 14.0796 88.4344 13.8999 87.5734C13.7202 86.7124 13.7677 85.9139 14.0423 85.1779C14.3146 84.4308 14.7623 83.8029 15.3854 83.2943C15.995 82.7769 16.716 82.4322 17.5482 82.2604C17.6703 82.2351 17.799 82.2143 17.9345 82.1978C18.07 82.1814 18.2121 82.1693 18.361 82.1616L19.7053 88.6024C20.1904 88.3755 20.5559 88.0467 20.8016 87.616C21.0451 87.1743 21.1081 86.6719 20.9906 86.109C20.8892 85.6233 20.6907 85.2267 20.395 84.9194C20.0971 84.6009 19.7609 84.3767 19.3865 84.2468L20.3386 82.2367C20.9538 82.4666 21.5047 82.8882 21.9916 83.5015C22.4784 84.1148 22.8105 84.8465 22.9879 85.6964ZM15.8376 87.2078C15.9482 87.7376 16.2035 88.1569 16.6037 88.4658C17.0038 88.7746 17.4773 88.9359 18.0242 88.9496L17.136 84.6944C16.6842 84.9143 16.3266 85.253 16.0633 85.7104C15.7976 86.1567 15.7224 86.6559 15.8376 87.2078Z" fill="white"/>
<path d="M21.7149 76.8892C21.7631 77.7559 21.5849 78.4319 21.1806 78.917C20.7762 79.4021 20.0931 79.6711 19.1312 79.724L14.9896 79.9515L15.058 81.1841L13.106 81.2914L13.0376 80.0588L11.2553 80.1567L10.8911 77.8903L12.911 77.7794L12.8079 75.922L14.7599 75.8148L14.863 77.6721L18.8858 77.4511C19.429 77.4212 19.6874 77.1699 19.6612 76.6972L19.6087 75.7516L21.6456 75.6397L21.7149 76.8892Z" fill="white"/>
<path d="M21.8414 71.0432L10 69.8711L10.2357 67.5153L22.077 68.6874L21.8414 71.0432Z" fill="white"/>
<path d="M22.2031 66.7146L13.6096 64.653L14.1396 62.4666L15.3956 62.7679C14.535 62.086 14.2615 61.0985 14.575 59.8052C14.7238 59.1915 15.0012 58.6724 15.4072 58.248C15.8132 57.8235 16.3152 57.5322 16.9131 57.3742C17.511 57.2161 18.1735 57.2242 18.9007 57.3987L24.1559 58.6594L23.6179 60.8787L18.908 59.7488C18.1588 59.5691 17.5778 59.6094 17.1649 59.8699C16.741 60.1277 16.4626 60.5306 16.3298 61.0786C16.2155 61.5498 16.2853 62.0072 16.5392 62.4508C16.7847 62.8808 17.282 63.1857 18.0312 63.3654L22.7411 64.4953L22.2031 66.7146Z" fill="white"/>
<path d="M27.2586 51.5651L18.5321 47.2218L17.0107 50.2464L15.0952 49.293L19.2028 41.1265L21.1184 42.08L19.597 45.1046L28.3235 49.4479L27.2586 51.5651Z" fill="white"/>
<path d="M32.3127 43.7955C31.772 44.5195 31.1204 45.0421 30.3579 45.3634C29.5955 45.6847 28.8152 45.8031 28.0169 45.7187C27.2164 45.6186 26.4749 45.3163 25.7927 44.812C25.1104 44.3077 24.6056 43.6888 24.2782 42.9552C23.9575 42.2126 23.8418 41.4318 23.9311 40.6129C24.0203 39.7941 24.3354 39.0227 24.8761 38.2988C25.4236 37.5658 26.0752 37.0432 26.8309 36.7309C27.5933 36.4096 28.3748 36.2991 29.1754 36.3992C29.9827 36.4903 30.7275 36.7881 31.4098 37.2923C32.092 37.7966 32.5935 38.4201 32.9141 39.1628C33.2325 39.8896 33.347 40.6625 33.2577 41.4814C33.1752 42.2912 32.8602 43.0626 32.3127 43.7955ZM30.6344 42.555C30.925 42.1659 31.0875 41.7593 31.1219 41.3353C31.1472 40.9045 31.0626 40.4979 30.8682 40.1154C30.6806 39.7239 30.4049 39.3937 30.041 39.1248C29.668 38.8491 29.2661 38.6784 28.8351 38.6126C28.4109 38.5379 27.9997 38.578 27.6014 38.7331C27.1941 38.8815 26.8451 39.1502 26.5545 39.5393C26.2638 39.9284 26.1058 40.3384 26.0806 40.7691C26.0462 41.1932 26.1228 41.6009 26.3105 41.9924C26.5048 42.3749 26.7885 42.7039 27.1615 42.9796C27.5253 43.2486 27.9194 43.4204 28.3436 43.4952C28.7745 43.561 29.1937 43.5196 29.601 43.3713C29.9993 43.2162 30.3437 42.9441 30.6344 42.555Z" fill="white"/>
<path d="M38.6801 36.6636C38.2101 37.0878 37.6872 37.3618 37.1115 37.4855C36.5358 37.6093 35.956 37.5692 35.3723 37.3653C34.7809 37.1531 34.2378 36.7757 33.7428 36.2329L30.1107 32.25L31.8105 30.7162L35.0657 34.2858C35.5759 34.8452 36.0623 35.1521 36.525 35.2064C36.9877 35.2608 37.4289 35.0986 37.8486 34.7198C38.2095 34.3941 38.4063 33.9807 38.4389 33.4794C38.4798 32.9706 38.2452 32.4365 37.735 31.8771L34.4798 28.3075L36.1796 26.7736L42.1189 33.2866L40.4695 34.775L39.5786 33.798C39.7618 34.3177 39.7856 34.8137 39.6502 35.286C39.5155 35.7424 39.1922 36.2016 38.6801 36.6636Z" fill="white"/>
<path d="M47.413 30.1049C46.873 30.4366 46.3042 30.6468 45.7066 30.7356C45.1187 30.8184 44.5362 30.7919 43.9591 30.6561C43.3761 30.5107 42.8375 30.2652 42.3432 29.9196C41.8527 29.5584 41.4377 29.1044 41.0983 28.5576C40.6458 27.8286 40.4068 27.0678 40.3811 26.2754C40.3591 25.4674 40.5369 24.7024 40.9145 23.9803C41.3018 23.2522 41.8763 22.6543 42.6381 22.1864C43.3168 21.7563 44.0036 21.5001 44.6984 21.4179C45.3932 21.3356 46.0367 21.4174 46.6288 21.6632L45.8836 23.8102C45.5492 23.6578 45.1946 23.5908 44.8197 23.609C44.4544 23.6214 44.103 23.7312 43.7655 23.9385C43.3508 24.1931 43.0517 24.516 42.8682 24.9069C42.6787 25.2883 42.5983 25.6954 42.6272 26.1281C42.6657 26.5549 42.807 26.965 43.0511 27.3583C43.2892 27.742 43.5993 28.0484 43.9813 28.2776C44.3669 28.4912 44.7765 28.604 45.2102 28.6159C45.6475 28.6123 46.0735 28.4832 46.4881 28.2285C46.8642 27.9975 47.1318 27.7205 47.291 27.3976C47.4442 27.065 47.5368 26.71 47.5689 26.3325L49.7456 26.685C49.6686 27.355 49.4453 27.9823 49.0757 28.5671C48.7098 29.1363 48.1555 29.6489 47.413 30.1049Z" fill="white"/>
<path d="M51.8977 27.2582L47.4481 15.7344L49.5905 14.9158L51.3094 19.3675C51.4124 18.3137 52.0722 17.5544 53.2889 17.0895C53.8813 16.8631 54.4684 16.7958 55.0502 16.8875C55.6319 16.9793 56.1578 17.2252 56.628 17.6252C57.0981 18.0253 57.4672 18.5726 57.7354 19.2672L59.6738 24.2871L57.5314 25.1057L55.7942 20.6067C55.5179 19.891 55.1548 19.438 54.7049 19.2476C54.251 19.0467 53.7595 19.0473 53.2305 19.2494C52.7756 19.4232 52.4366 19.7399 52.2134 20.1995C51.9968 20.6446 52.0266 21.225 52.3029 21.9406L54.0401 26.4396L51.8977 27.2582Z" fill="white"/>
<path d="M67.7042 15.0079L66.5996 16.1L65.3974 14.6579L64.6814 16.3751L63.2822 15.6644L64.3237 14.0516L62.442 13.8934L62.6861 12.3508L64.5133 12.8252L64.0816 11.0262L65.6276 10.7908L65.74 12.6383L67.3123 11.6803L68.0261 13.0771L66.2562 13.7572L67.7042 15.0079Z" fill="white"/>
<rect x="50" y="50" width="50" height="50" rx="25" fill="white"/>
<path d="M89.0313 73.0434C89.1936 74.3446 89.1912 75.6601 89.0337 76.9614C88.7448 76.6773 88.4511 76.3979 88.1646 76.1138C87.6585 76.6224 87.1547 77.1286 86.6461 77.6347C87.2478 78.2388 87.8518 78.8428 88.4559 79.4492C88.2506 79.9769 88.0429 80.5069 87.8304 81.0322C87.0592 80.2753 86.3071 79.4994 85.5288 78.7497C85.0251 79.2558 84.5189 79.7644 84.0128 80.2681C84.9057 81.173 85.8153 82.066 86.7107 82.9708C86.3955 83.3911 86.0756 83.8089 85.7485 84.2219C83.0626 81.524 80.3432 78.8547 77.6811 76.1282C77.1176 76.589 76.6186 77.1166 76.1125 77.6371C78.8127 80.3446 81.5202 83.0473 84.2228 85.7523C83.805 86.0794 83.3824 86.3993 82.9503 86.7073C80.293 84.0547 77.6739 81.3592 74.964 78.7616C74.477 79.2701 73.978 79.7667 73.479 80.2634C75.9788 82.7966 78.5167 85.2963 81.0212 87.8271C80.5007 88.0419 79.9754 88.2521 79.4478 88.455C77.0794 86.1057 74.7349 83.7277 72.3593 81.3831C71.8556 81.8893 71.3518 82.3931 70.8456 82.8944C72.8679 84.9572 74.9331 86.9771 76.96 89.0327C75.6565 89.188 74.3386 89.1856 73.035 89.0375C73.3215 88.751 73.6009 88.4574 73.8873 88.1709C73.3836 87.6551 72.875 87.1466 72.3474 86.6548C71.7601 87.2588 71.1584 87.8485 70.5687 88.4502C70.0315 88.2544 69.5015 88.0467 68.9714 87.8318C69.7283 87.063 70.4947 86.3038 71.2539 85.5374C70.7501 85.0217 70.2392 84.5156 69.7164 84.0213C68.8258 84.9238 67.9281 85.8144 67.0328 86.7121C66.6126 86.3969 66.1948 86.077 65.7794 85.7523C72.431 79.0863 79.0969 72.437 85.7509 65.7734C86.0756 66.1913 86.3955 66.6139 86.7059 67.0412C84.0486 69.6913 81.396 72.3463 78.7435 75.0012C79.252 75.5098 79.7582 76.0183 80.2643 76.5245C82.7903 74.0176 85.2949 71.4892 87.8184 68.9775C88.0381 69.498 88.2506 70.0208 88.4583 70.5461C86.1066 72.9169 83.7358 75.2686 81.3793 77.6371C81.8831 78.1408 82.3869 78.6494 82.8882 79.1579C84.9558 77.138 86.9708 75.0656 89.0313 73.0434Z" fill="#C19A5B"/>
<path d="M82.9741 63.288C83.3919 63.6079 83.8073 63.9278 84.2203 64.2525C77.564 70.9113 70.9099 77.5773 64.2416 84.2266C63.9193 83.8088 63.6017 83.3909 63.289 82.9707C65.9439 80.3158 68.6036 77.6633 71.2538 75.0035C70.7477 74.4926 70.2391 73.9841 69.7282 73.4803C67.1998 75.9848 64.7144 78.5323 62.1621 81.0153C61.9377 80.4876 61.73 79.9505 61.5557 79.4037C63.9385 77.0902 66.2639 74.7123 68.618 72.37C68.1119 71.8591 67.6057 71.3506 67.0948 70.8444C65.0487 72.881 63.0217 74.9367 60.9636 76.9636C60.8084 75.6601 60.8084 74.3445 60.9612 73.0433C61.2478 73.325 61.5414 73.602 61.8255 73.8861C62.3388 73.3871 62.8474 72.881 63.3512 72.37C62.759 71.7708 62.1669 71.1739 61.5581 70.5913C61.7444 70.0518 61.9425 69.5193 62.1502 68.9917C62.9501 69.7151 63.6878 70.5006 64.459 71.2551C64.9747 70.7537 65.4832 70.2475 65.9846 69.7318C65.0869 68.8317 64.1868 67.934 63.2867 67.0339C63.6042 66.6113 63.9218 66.1935 64.2465 65.778C66.9539 68.4807 69.6566 71.1882 72.3616 73.8909C72.8749 73.3895 73.3858 72.8809 73.8896 72.3676C71.1869 69.6603 68.4771 66.9624 65.7768 64.2501C66.1922 63.9254 66.6076 63.6055 67.0278 63.288C69.6803 65.9453 72.34 68.5954 74.9878 71.2552C75.5107 70.7585 76.0192 70.25 76.5206 69.7319C74.0066 67.2107 71.4806 64.7014 68.9713 62.173C69.5013 61.9462 70.0409 61.7385 70.59 61.557C72.8987 63.935 75.2838 66.2366 77.5997 68.6098C78.1465 68.1371 78.6527 67.619 79.1564 67.0985C77.1175 65.0548 75.0713 63.0158 73.0324 60.9721C74.3384 60.805 75.6587 60.8098 76.9622 60.9649C76.6781 61.2538 76.3988 61.5475 76.1123 61.8364C76.6184 62.3425 77.1222 62.8487 77.6284 63.3548C78.2396 62.7556 78.8436 62.1492 79.4476 61.5427C79.9753 61.7456 80.5029 61.9581 81.0234 62.1778C80.2689 62.9466 79.4977 63.6987 78.7433 64.4698C79.2494 64.9689 79.7484 65.4702 80.2403 65.9787C81.1882 65.1216 82.062 64.1833 82.9741 63.288Z" fill="#C19A5B"/>
<path d="M74.9998 90C66.7288 90 60 83.2709 60 74.9999C60 66.7288 66.7288 60 74.9998 60C83.2708 60 89.9996 66.7288 89.9996 74.9999C89.9996 83.2709 83.2708 90 74.9998 90ZM74.9998 60.9332C67.2435 60.9332 60.9332 67.2435 60.9332 74.9999C60.9332 82.7565 67.2435 89.0668 74.9998 89.0668C82.7561 89.0668 89.0664 82.7565 89.0664 74.9999C89.0664 67.2435 82.7561 60.9332 74.9998 60.9332Z" fill="#C19A5B"/>
</svg>
