<svg width="20" height="20" viewBox="0 0 20 20" fill="none" xmlns="http://www.w3.org/2000/svg">
<g clip-path="url(#clip0_256_3175)">
<path d="M15.8063 12.3867C15.3968 11.9604 14.903 11.7325 14.3795 11.7325C13.8603 11.7325 13.3622 11.9562 12.9359 12.3825L11.602 13.7122C11.4923 13.6531 11.3825 13.5982 11.277 13.5433C11.125 13.4674 10.9815 13.3956 10.8591 13.3196C9.60966 12.526 8.47417 11.4919 7.38512 10.1538C6.85747 9.48682 6.5029 8.92541 6.24541 8.35556C6.59154 8.03897 6.91235 7.70972 7.22471 7.39314C7.34291 7.27494 7.4611 7.15253 7.57929 7.03434C8.46573 6.1479 8.46573 4.99975 7.57929 4.11331L6.42692 2.96094C6.29606 2.83009 6.16099 2.69501 6.03435 2.55994C5.78108 2.29823 5.51515 2.02807 5.24078 1.7748C4.83133 1.36957 4.34168 1.1543 3.8267 1.1543C3.31172 1.1543 2.81362 1.36957 2.39151 1.7748C2.38729 1.77903 2.38729 1.77903 2.38307 1.78325L0.947882 3.2311C0.407577 3.7714 0.0994339 4.4299 0.0318957 5.19392C-0.0694116 6.4265 0.293606 7.57465 0.572201 8.32601C1.25603 10.1706 2.27754 11.8802 3.80137 13.7122C5.65023 15.9198 7.87477 17.6632 10.4159 18.8915C11.3868 19.3516 12.6826 19.8961 14.1305 19.989C14.2191 19.9932 14.312 19.9975 14.3964 19.9975C15.3715 19.9975 16.1904 19.6471 16.832 18.9506C16.8362 18.9422 16.8447 18.9379 16.8489 18.9295C17.0684 18.6636 17.3217 18.423 17.5876 18.1655C17.7691 17.9924 17.9548 17.8109 18.1364 17.621C18.5542 17.1862 18.7737 16.6796 18.7737 16.1604C18.7737 15.637 18.55 15.1347 18.1237 14.7126L15.8063 12.3867ZM17.3175 16.8316C17.3132 16.8316 17.3132 16.8358 17.3175 16.8316C17.1528 17.0089 16.984 17.1693 16.8025 17.3466C16.5281 17.6083 16.2495 17.8827 15.9878 18.1908C15.5615 18.6467 15.0591 18.862 14.4006 18.862C14.3373 18.862 14.2698 18.862 14.2065 18.8577C12.9528 18.7775 11.7878 18.2879 10.914 17.87C8.52482 16.7134 6.42692 15.0714 4.68359 12.9904C3.24418 11.2555 2.28176 9.65145 1.64437 7.92922C1.2518 6.87816 1.10829 6.05926 1.1716 5.28679C1.21381 4.79292 1.40377 4.38347 1.75412 4.03311L3.19353 2.5937C3.40036 2.39953 3.61986 2.294 3.83514 2.294C4.10107 2.294 4.31635 2.45441 4.45143 2.58948C4.45565 2.5937 4.45987 2.59793 4.46409 2.60215C4.72158 2.84275 4.9664 3.0918 5.22389 3.35773C5.35475 3.49281 5.48983 3.62788 5.6249 3.76718L6.77727 4.91955C7.22471 5.36699 7.22471 5.78066 6.77727 6.2281C6.65486 6.35052 6.53667 6.47293 6.41425 6.59112C6.05968 6.95414 5.72199 7.29183 5.35475 7.62108C5.34631 7.62952 5.33786 7.63374 5.33364 7.64218C4.97063 8.0052 5.03816 8.35978 5.11414 8.60038C5.11837 8.61305 5.12259 8.62571 5.12681 8.63837C5.42651 9.36441 5.84862 10.0482 6.49023 10.8629L6.49446 10.8671C7.65949 12.3023 8.88784 13.4209 10.2428 14.2778C10.4159 14.3876 10.5932 14.4762 10.762 14.5606C10.914 14.6366 11.0575 14.7084 11.1799 14.7843C11.1968 14.7928 11.2137 14.8055 11.2306 14.8139C11.3741 14.8857 11.5092 14.9194 11.6485 14.9194C11.9988 14.9194 12.2183 14.6999 12.2901 14.6282L13.7337 13.1845C13.8772 13.041 14.1052 12.868 14.3711 12.868C14.6328 12.868 14.8481 13.0326 14.9789 13.1761C14.9832 13.1803 14.9832 13.1803 14.9874 13.1845L17.3132 15.5104C17.748 15.9409 17.748 16.3842 17.3175 16.8316Z" fill="#C19A5B"/>
<path d="M10.8085 4.75936C11.9145 4.94509 12.9191 5.46851 13.7211 6.27052C14.5231 7.07254 15.0423 8.07717 15.2323 9.18311C15.2787 9.4617 15.5193 9.65588 15.7937 9.65588C15.8275 9.65588 15.857 9.65166 15.8908 9.64743C16.2032 9.59678 16.41 9.3013 16.3593 8.98894C16.1314 7.65084 15.4982 6.43093 14.5316 5.46429C13.5649 4.49765 12.345 3.86448 11.0069 3.63654C10.6946 3.58588 10.4033 3.79272 10.3484 4.10086C10.2936 4.409 10.4962 4.7087 10.8085 4.75936Z" fill="#C19A5B"/>
<path d="M19.9767 8.82242C19.6011 6.61899 18.5627 4.61395 16.9671 3.01836C15.3715 1.42277 13.3664 0.384369 11.163 0.00868772C10.8549 -0.0461871 10.5636 0.16487 10.5087 0.473013C10.4581 0.785377 10.6649 1.07664 10.9773 1.13151C12.9443 1.46498 14.7383 2.39785 16.165 3.82037C17.5918 5.24712 18.5204 7.0411 18.8539 9.00815C18.9003 9.28675 19.1409 9.48092 19.4153 9.48092C19.4491 9.48092 19.4786 9.4767 19.5124 9.47248C19.8206 9.42604 20.0316 9.13056 19.9767 8.82242Z" fill="#C19A5B"/>
</g>
<defs>
<clipPath id="clip0_256_3175">
<rect width="20" height="20" fill="white"/>
</clipPath>
</defs>
</svg>
